# xmcd
#
# Track frame offsets: 
#        150
#        35657
#        78987
#        105307
#        137612
#        171544
#        189276
#        213743
#        256263
#        299795
#
# Disc length: 4555 seconds
#
# Revision: 0
# Processed by: cddbd v1.5.2PL0 Copyright (c) Steve Scherf et al.
# Submitted via: ExactAudioCopyFreeDBPlugin 1.0
#
DISCID=9411c90a
DTITLE=Livin' Blues Xperience - Alive and Kicking
DYEAR=2015
DGENRE=Blues
TTITLE0=Spoonfull
TTITLE1=Blacknight
TTITLE2=Crazy Crazy
TTITLE3=Hitchhiking Blues
TTITLE4=Too Many Chiefs
TTITLE5=Mysterious ways
TTITLE6=No Use Cryin'
TTITLE7=Red Lights
TTITLE8=Wang Dang Doodle, LB Boogie
TTITLE9=Voodoo Dancer
EXTD=
EXTT0=
EXTT1=
EXTT2=
EXTT3=
EXTT4=
EXTT5=
EXTT6=
EXTT7=
EXTT8=
EXTT9=
PLAYORDER=
